<svg xmlns="http://www.w3.org/2000/svg" width="90.98mm" height="90.97mm" viewBox="0 0 257.88 257.88"><defs><style>.cls-1{fill:#093a83;}.cls-2,.cls-3{fill:none;stroke-miterlimit:10;}.cls-2{stroke:#9d9fa1;stroke-width:2.55px;}.cls-3{stroke:#fbc277;stroke-width:31.18px;}.cls-4{fill:#fff;}.cls-5{fill:#1b1045;}.cls-6{fill:#9d9fa1;}.cls-7{fill:#bfe1da;}</style></defs><g id="nul_alko" data-name="nul alko"><circle class="cls-1" cx="128.94" cy="128.94" r="77.35"/><circle class="cls-2" cx="128.94" cy="128.94" r="81.6"/><circle class="cls-3" cx="128.94" cy="128.94" r="102.01" transform="translate(-53.41 128.94) rotate(-45)"/></g><g id="Layer_3" data-name="Layer 3"><polygon class="cls-4" points="152.78 116.42 152.78 172.55 183.23 172.55 183.23 162.51 163.29 162.51 163.29 116.42 152.78 116.42"/><path class="cls-4" d="M128.9,65.18a17.92,17.92,0,0,0-7.84,1.57c-5.88,2.82-7.34,9-7.34,14.4V92.49h11.15V79.89c0-2.83,1.64-4.67,4.19-4.67a4,4,0,0,1,2.9,1.14,4.86,4.86,0,0,1,1.29,3.53v12.6h11.14V81.15c0-10.15-5.64-16-15.49-16"/><path class="cls-4" d="M113.72,116.43V158c0,6.91,2.4,11.61,7,13.94a17.86,17.86,0,0,0,8.17,1.71c10,0,15.49-5.56,15.49-15.65V116.43H133.25v42.83a4.86,4.86,0,0,1-1.29,3.53,4,4,0,0,1-2.9,1.13c-2.55,0-4.19-1.83-4.19-4.66V116.43Z"/><polygon class="cls-4" points="96.87 116.42 96.87 152.22 96.33 152.22 85.96 117.47 75.93 117.47 75.93 173.59 84.39 173.59 84.39 137.8 84.93 137.8 95.31 172.55 105.34 172.55 105.34 116.42 96.87 116.42"/><rect class="cls-5" x="164.33" y="116.42" width="2.09" height="45.04"/><polygon class="cls-5" points="183.23 161.46 183.23 161.46 183.23 161.46 183.23 173.59 185.32 173.59 185.32 161.46 183.23 161.46"/><path class="cls-5" d="M127.42,76.68a2.69,2.69,0,0,0-1,1.09,4.46,4.46,0,0,0-.46,2.12v12.6H128V79.89c0-1.79.74-3,2.11-3.46a3.44,3.44,0,0,0-1-.16,3.21,3.21,0,0,0-1.64.41"/><path class="cls-5" d="M131,64.14c-.36,0-.7,0-1,0,9.89.42,15.49,6.78,15.49,17V92.49h2.08V81.15c0-10.55-6-17-16.53-17"/><path class="cls-5" d="M129.06,162.88a3.42,3.42,0,0,0,.93-.13l.11,0c-1.37-.42-2.11-1.67-2.11-3.46V116.42h-2.08v42.84c0,2.2,1.1,3.62,3.15,3.62"/><path class="cls-5" d="M145.44,116.42h0V158c0,5-1.38,9.21-4.14,12.13-2.58,2.72-6.38,4.33-11.38,4.52.35,0,.7,0,1.07,0,11,0,16.53-6.61,16.53-16.69V116.42Z"/><polygon class="cls-5" points="95.83 146.29 95.83 139.89 88.82 116.42 86.73 116.42 95.65 146.29 95.83 146.29"/><polygon class="cls-5" points="85.44 143.73 85.44 173.59 87.52 173.59 87.52 150.12 85.61 143.73 85.44 143.73"/><rect class="cls-5" x="106.38" y="116.43" width="2.09" height="57.17"/><polygon class="cls-6" points="164.33 161.46 164.33 116.42 163.29 116.42 163.29 162.51 183.23 162.51 183.23 161.46 164.33 161.46"/><polygon class="cls-6" points="152.78 172.55 152.78 116.42 151.74 116.42 151.74 173.59 183.23 173.59 183.23 172.55 152.78 172.55"/><path class="cls-6" d="M129.94,64.18c-.34,0-.68,0-1,0-5.43,0-9.36,1.6-12,4.37-2.87,3-4.21,7.39-4.21,12.64V92.49h1V81.15c0-5.41,1.46-11.58,7.34-14.4a17.92,17.92,0,0,1,7.84-1.57c9.85,0,15.49,5.82,15.49,16V92.49h1.05V81.15c0-10.19-5.6-16.55-15.5-17"/><path class="cls-6" d="M129.06,75.22c-2.55,0-4.19,1.84-4.19,4.67v12.6h1V79.89a4.46,4.46,0,0,1,.46-2.12,2.76,2.76,0,0,1,1-1.09,3.24,3.24,0,0,1,1.64-.41,3.44,3.44,0,0,1,1,.16c1.37.41,2.11,1.67,2.11,3.46v12.6h1V79.89A4.86,4.86,0,0,0,132,76.36a4,4,0,0,0-2.9-1.14"/><path class="cls-6" d="M145.44,116.43h-1.05V158c0,10.09-5.5,15.65-15.49,15.65a17.86,17.86,0,0,1-8.17-1.71c-4.61-2.33-7-7-7-13.94V116.43h-1V158c0,10.39,5.2,16.69,16.22,16.69.35,0,.67,0,1,0h0c5-.19,8.8-1.8,11.38-4.52,2.76-2.92,4.14-7.09,4.14-12.13Z"/><path class="cls-6" d="M129.06,163.92a4,4,0,0,0,2.9-1.13,4.86,4.86,0,0,0,1.29-3.53V116.43h-1v42.83c0,1.79-.74,3.05-2.11,3.46l-.11,0a3.42,3.42,0,0,1-.93.13c-2,0-3.15-1.42-3.15-3.62V116.43h-1v42.83c0,2.83,1.64,4.66,4.19,4.66"/><polygon class="cls-6" points="96.33 152.22 96.87 152.22 96.87 116.42 95.83 116.42 95.83 116.42 95.83 146.29 95.83 146.29 95.65 146.29 86.73 116.42 74.88 116.42 74.88 173.59 75.93 173.59 75.93 117.47 85.96 117.47 96.33 152.22"/><polygon class="cls-6" points="105.34 116.42 105.34 172.55 95.31 172.55 84.93 137.8 84.39 137.8 84.39 173.59 85.44 173.59 85.44 143.73 85.61 143.73 94.53 173.59 106.38 173.59 106.38 116.42 105.34 116.42"/><polygon class="cls-7" points="93.8 99.14 93.8 111.9 91.01 111.9 91.01 99.14 86.18 99.14 86.18 96.82 98.61 96.82 98.61 99.14 93.8 99.14"/><path class="cls-7" d="M106.33,109.69c1.92,0,3.22-1.32,3.22-3.76V96.82h2.79V106c0,3.93-2.63,6.2-6,6.2a5.78,5.78,0,0,1-6-6.2V96.82h2.79v9.11c0,2.44,1.32,3.76,3.22,3.76"/><path class="cls-7" d="M115.25,96.83h4.33c3.37,0,5.13,1.56,5.13,4A3.38,3.38,0,0,1,122.6,104a3.78,3.78,0,0,1,3,3.65c0,2.67-2.07,4.3-5.33,4.3h-5.06Zm4.17,6.38c1.57,0,2.56-.71,2.56-2s-1-2-2.56-2H118v4.07Zm.72,6.38c1.59,0,2.67-.83,2.67-2.17s-1.08-2.15-2.67-2.15H118v4.32Z"/><path class="cls-7" d="M142.69,104.36a7.71,7.71,0,1,1-7.7-7.78,7.74,7.74,0,0,1,7.7,7.78m-12.62,0a4.92,4.92,0,1,0,4.92-5.2,5,5,0,0,0-4.92,5.2"/><path class="cls-7" d="M147.9,111.9h-2.79V96.82h4.26c3.32,0,5.7,1.72,5.7,4.67a4.21,4.21,0,0,1-2.95,4.13l4.68,6.28h-3.24l-4.32-5.82H147.9Zm-.05-8.05h1.47c1.71,0,2.87-.85,2.87-2.36s-1.16-2.37-2.87-2.37h-1.47Z"/><path class="cls-7" d="M172,103.89c0,.27,0,.53,0,.8a7.05,7.05,0,0,1-7.29,7.46,7.79,7.79,0,0,1,0-15.57,7.17,7.17,0,0,1,6.36,3.71l-2.34,1.41a4.53,4.53,0,0,0-4-2.5,5,5,0,0,0-4.9,5.16,5.09,5.09,0,0,0,4.94,5.25,4.23,4.23,0,0,0,4.34-3.41h-4.18v-2.31Z"/></g><g id="outline"><path class="cls-1" d="M53.63,45.35l10-8.09,2.68,3.31-5.95,4.81,2.57,3.17,6-4.83.89,4.49L65.49,51.7l2.73,3.38,6-4.83,2.68,3.31-10,8.12Z"/><path class="cls-1" d="M69.18,33.37l3.4-1.77,14.07,6.81L80.86,27.29,85,25.12l9.71,18.63L91.36,45.5l-14.24-7L83,49.85,78.88,52Z"/><path class="cls-1" d="M105.74,18.63l3.81-.48L120.4,29.4,118.8,17l4.65-.59,2.66,20.83-3.75.48-11-11.45L113,38.87l-4.61.59Z"/><path class="cls-1" d="M134,29.26l-6.72-13.11,5.72.43,4,8.51,5.19-7.82,5.39.41-8.43,12-.63,8.4-5.17-.39Z"/><path class="cls-1" d="M151.84,18.56l5,1.46-2.25,7.72,7.26,2.11,2.25-7.72,5,1.46-5.88,20.16-5-1.45,2.43-8.36-7.26-2.11L151,40.18l-5-1.45Z"/><path class="cls-1" d="M176.13,26.79l11.38,6-2,3.76L178.75,33l-1.9,3.61,6.78,3.59-3.77,2.59L175,40.18l-2,3.84,6.79,3.6-2,3.76-11.4-6Z"/><path class="cls-1" d="M193.41,36.44l6.38,5.29c5.42,4.5,6.24,10.56,2.2,15.43s-10.32,5.12-15.61.73L180,52.6Zm-4.84,17.73c2.93,2.44,6.55,2.87,9.31-.46s1.75-6.58-1.34-9.14L194.64,43l-8,9.6Z"/><path class="cls-1" d="M49.72,175.33l2.26,3.1-4.67,14.92L57.45,186l2.75,3.79-17,12.33L41,199l4.79-15.11-10.32,7.49-2.73-3.76Z"/><path class="cls-1" d="M54.77,201.27l7.73-9,4,3.4-7.89,9.17c-1.93,2.26-1.78,4.52-.06,6s4,1.34,6-.94l7.88-9.17,4,3.4-7.73,9c-4.13,4.8-9,4.68-13.06,1.2S50.64,206.07,54.77,201.27Z"/><path class="cls-1" d="M79.18,205.75l4.54,2.58-8.26,14.56,6.78,3.84-2.1,3.71L68.81,224Z"/><path class="cls-1" d="M108.84,235.86,100.5,234l-2.21,3.25L93.05,236l14.06-18.34,2.87.65.51,2.46L114.76,241l-5.27-1.2Zm-.68-4.29-1.17-7-4,5.85Z"/><path class="cls-1" d="M119.69,220l5.21.22-.68,16.72,7.79.32-.17,4.26-13-.54Z"/><path class="cls-1" d="M133.56,220.47l5.17-.67,1.12,8.59,4.89-9.37,5.75-.75L144.62,229l9.29,10-6.25.81-7.4-8.29,1.18,9.1-5.18.67Z"/><path class="cls-1" d="M152.26,228.72c-2.15-6.11,1.12-11.84,6.84-13.84s11.82.44,14,6.55-1.13,11.84-6.82,13.83S154.44,235,152.26,228.72Zm15.82-5.54c-1.16-3.32-4.3-5-7.44-3.91a6.16,6.16,0,0,0,4.07,11.6C167.85,229.77,169.24,226.49,168.08,223.18Z"/><path class="cls-1" d="M171.78,210.14l4.33-2.86,4.43,6.71,6.31-4.17-4.44-6.71,4.33-2.86,11.58,17.52L194,220.63l-4.79-7.26-6.31,4.17,4.8,7.26-4.33,2.86Z"/><path class="cls-1" d="M196.21,206.21c-4.76-4.41-4.55-11-.43-15.44s10.65-5.15,15.41-.74,4.54,11,.44,15.41S201.05,210.69,196.21,206.21ZM207.6,193.9c-2.58-2.39-6.14-2.42-8.41,0a6.16,6.16,0,0,0,9,8.35C210.48,199.84,210.18,196.28,207.6,193.9Z"/><path class="cls-1" d="M204.64,180.37l2.68-4.48,14.37,8.58,4-6.7,3.66,2.18-6.67,11.18Z"/></g></svg>
